<svg xmlns="http://www.w3.org/2000/svg" width="178.72" height="60.79" viewBox="0 0 178.72 60.79"><title>industrey-logo2</title><path d="M431.67,257c.38.07.76.14,1.13.23a8.16,8.16,0,0,1,2.92,1.29,1.78,1.78,0,0,1,.75,2c-.17.69-.17.68.51.86a24.9,24.9,0,0,1,4.57,1.71c.17.08.21.15.16.34-.57,2.23-1.12,4.46-1.67,6.69a1.79,1.79,0,0,0,2.61,2.08,1.76,1.76,0,0,0,.82-1.13c.48-1.88.95-3.77,1.41-5.65.07-.27.13-.25.32-.11a24.41,24.41,0,0,1,9.17,13.47c.07.23,0,.28-.21.28H407.45c-.25,0-.27-.06-.21-.29a24.43,24.43,0,0,1,9.18-13.46c.19-.15.25-.15.31.11.46,1.88.93,3.75,1.41,5.63a1.78,1.78,0,1,0,3.46-.82c-.55-2.27-1.12-4.54-1.69-6.8-.05-.19,0-.26.16-.35a24,24,0,0,1,5-1.8c.21-.05.24-.13.18-.32a5.47,5.47,0,0,1-.15-.58,1.76,1.76,0,0,1,.76-1.83,8.34,8.34,0,0,1,3.85-1.48s.14,0,.16-.06h.47a.68.68,0,0,0,.4,0h.11a.72.72,0,0,0,.41,0Z" transform="translate(-400.24 -257.04)" fill="#fb0012"/><path d="M425.68,317.82c-.06-.09-.16-.07-.25-.11a1.65,1.65,0,0,1-1.13-1.52c0-.9,0-1.8,0-2.71a.28.28,0,0,0-.24-.33,20,20,0,0,1-3.2-1.34c-.18-.09-.27-.09-.41.06-.57.59-1.15,1.16-1.73,1.74a1.77,1.77,0,0,1-2.67,0L409.46,307a1.79,1.79,0,0,1,0-2.65l1.77-1.78a.24.24,0,0,0,.06-.34,20.42,20.42,0,0,1-1.36-3.28.26.26,0,0,0-.32-.22h-2.45a1.78,1.78,0,0,1-1.88-1.9c0-1.15,0-2.3,0-3.45,0-.21.06-.26.26-.26h10.22c.18,0,.26,0,.28.23A14.68,14.68,0,0,0,421,303.3a14.5,14.5,0,0,0,8.19,3.69,14.88,14.88,0,0,0,16.46-13.66c0-.26.16-.21.3-.21h7.54c.88,0,1.75,0,2.62,0,.22,0,.3,0,.29.28,0,1.15,0,2.3,0,3.46a1.79,1.79,0,0,1-1.88,1.87H452c-.18,0-.24.06-.29.22a20.06,20.06,0,0,1-1.35,3.25c-.08.17-.08.26.06.39l1.73,1.73a1.79,1.79,0,0,1,0,2.7l-6.55,6.59a1.78,1.78,0,0,1-2.7,0c-.57-.58-1.15-1.15-1.72-1.74a.26.26,0,0,0-.36-.06,19.35,19.35,0,0,1-3.26,1.36.27.27,0,0,0-.21.31c0,.72,0,1.44,0,2.15,0,1.31-.29,1.75-1.47,2.21Z" transform="translate(-400.24 -257.04)" fill="#121111"/><path d="M400.24,286h.05a.32.32,0,0,1,0,.46h-.05Z" transform="translate(-400.24 -257.04)" fill="#fdcbce"/><path d="M461.09,286h.05v.46h-.05A.34.34,0,0,1,461.09,286Z" transform="translate(-400.24 -257.04)" fill="#fddadc"/><path d="M430.75,257a.33.33,0,0,1-.4,0Z" transform="translate(-400.24 -257.04)" fill="#fb1929"/><path d="M431.27,257a.35.35,0,0,1-.41,0Z" transform="translate(-400.24 -257.04)" fill="#fb1929"/><path d="M461.09,286v.46a3.56,3.56,0,0,1-3.65,3.34h-53.5a3.56,3.56,0,0,1-3.65-3.34V286a3.55,3.55,0,0,1,3.65-3.33q26.73,0,53.47,0A3.56,3.56,0,0,1,461.09,286Z" transform="translate(-400.24 -257.04)" fill="#fb0012"/><path d="M511.26,298.79l-.86-.08a7,7,0,0,1-1.88-.41,3.6,3.6,0,0,1-2.29-2.6A10,10,0,0,1,506,293q0-6.93,0-13.87c0-.86,0-1.72,0-2.57a1.76,1.76,0,0,0,0-.23h3.67s0,.09,0,.13q0,7.25,0,14.48c0,1,0,2,0,3a3.52,3.52,0,0,0,0,.56,1.42,1.42,0,0,0,1.19,1.16,3.3,3.3,0,0,0,1.5,0,1.43,1.43,0,0,0,1.24-1.5c0-1.23,0-2.45,0-3.68q0-5.28,0-10.56c0-1.11,0-2.22,0-3.33v-.27h3.66a.92.92,0,0,1,0,.16q.15,8.72,0,17.41a7.6,7.6,0,0,1-.29,1.9,3.63,3.63,0,0,1-2.59,2.6,8.78,8.78,0,0,1-2,.33l-.38,0Z" transform="translate(-400.24 -257.04)"/><path d="M524.65,298.79l-.87-.08a6.83,6.83,0,0,1-1.84-.42,3.68,3.68,0,0,1-2.29-2.65,9.35,9.35,0,0,1-.3-2.68c0-.83.06-1.66.08-2.48,0-.15.05-.21.22-.21h3.24v.64c0,1,0,2,0,3s.47,1.62,1.61,1.77a3.35,3.35,0,0,0,1.3-.08,1.39,1.39,0,0,0,1.12-1.28,13.52,13.52,0,0,0,0-3.05,2.52,2.52,0,0,0-.28-1.05,2.08,2.08,0,0,0-1.38-1c-1-.23-1.95-.43-2.91-.7a4,4,0,0,1-2.15-1.39,4.67,4.67,0,0,1-.84-2.12,18.19,18.19,0,0,1-.13-3.46,10,10,0,0,1,.26-2.31,3.75,3.75,0,0,1,2.93-2.94,10.19,10.19,0,0,1,4.94,0,3.78,3.78,0,0,1,2.93,3.13,9.66,9.66,0,0,1,.22,2.14c0,.89,0,1.77,0,2.66a1.41,1.41,0,0,1,0,.18H527v-.18c0-1.22,0-2.45,0-3.67a1.38,1.38,0,0,0-1.27-1.49,3.5,3.5,0,0,0-1.64.05,1.48,1.48,0,0,0-1.15,1.42,19.16,19.16,0,0,0,0,3,3.76,3.76,0,0,0,.14.73,1.6,1.6,0,0,0,1.33,1.21c.93.19,1.86.38,2.77.62a4.39,4.39,0,0,1,2.59,1.79,5.13,5.13,0,0,1,.81,2.4,18.34,18.34,0,0,1-.07,4.38,6.75,6.75,0,0,1-.34,1.34,3.61,3.61,0,0,1-2.73,2.36,18.13,18.13,0,0,1-1.82.27l-.28,0Z" transform="translate(-400.24 -257.04)"/><path d="M470.24,276.36l.18,0h3.5v22.16h-3.5l-.18,0Z" transform="translate(-400.24 -257.04)"/><path d="M480.64,279.57h-1.29c.38,6.31.75,12.61.89,18.94H476.6V276.36h6.26c.07.34.15.69.23,1.05.44,2,.89,3.94,1.3,5.92.15.76.22,1.54.33,2.31.18,1.38.37,2.76.56,4.15l.57,4.19c.06.43.11.86.17,1.29h1.27c-.49-6.29-.84-12.59-.92-18.91H490v22.16H483.7c-.15,0-.21,0-.25-.2-.5-2.38-1-4.76-1.52-7.15a19.72,19.72,0,0,1-.24-2l-.42-3.88c-.13-1.17-.25-2.34-.38-3.51-.08-.7-.15-1.4-.23-2.1A.29.29,0,0,0,480.64,279.57Z" transform="translate(-400.24 -257.04)"/><path d="M492.71,298.52V276.36l.13,0c2,0,4,0,6.05,0a5.93,5.93,0,0,1,2.79.68,3.52,3.52,0,0,1,1.76,2.42,9.25,9.25,0,0,1,.26,1.88q.15,6.06,0,12.13a6.94,6.94,0,0,1-.57,2.77,3.67,3.67,0,0,1-2.51,2,8.92,8.92,0,0,1-2.36.28h-5.56Zm3.68-18.94v15.7c.27,0,.53,0,.78,0,.51,0,1,0,1.51,0a1.31,1.31,0,0,0,1.17-.7,1.9,1.9,0,0,0,.18-.78c.05-1.25.08-2.5.08-3.75,0-3,0-6-.07-8.93a1.32,1.32,0,0,0-1.26-1.44,14.06,14.06,0,0,0-1.45-.06Z" transform="translate(-400.24 -257.04)"/><path d="M544,276.36l.14,0,5.78,0a7,7,0,0,1,2,.34,3.57,3.57,0,0,1,2.53,2.74,9.47,9.47,0,0,1,.25,1.84c0,1.52,0,3.05,0,4.57a6.52,6.52,0,0,1-.43,2.39,3.39,3.39,0,0,1-1.55,1.82c-.17.09-.2.16-.14.34l2.4,7.93c0,.05,0,.11.05.18H551.2c-.18-.68-.37-1.35-.55-2l-1.5-5.54c0-.12-.08-.16-.21-.16h-1.26v7.72H544Zm3.67,11.18h.17c.61,0,1.21,0,1.82,0a1.41,1.41,0,0,0,1.41-1.45,43.72,43.72,0,0,0,0-5,1.4,1.4,0,0,0-1.46-1.47c-.63,0-1.25,0-1.88,0l-.06,0Z" transform="translate(-400.24 -257.04)"/><path d="M566.27,288.89H561c-.16,0-.22,0-.22.21q0,3,0,6a1.28,1.28,0,0,0,0,.19h5.76v3.23h-9.44c0-.06,0-.13,0-.19V276.55c0-.17,0-.21.21-.21h9.25v3.24H561c-.14,0-.2,0-.2.18,0,1.91,0,3.81,0,5.71a1.16,1.16,0,0,0,0,.17h5.5Z" transform="translate(-400.24 -257.04)"/><path d="M575,298.52h-3.67V291.3H571c-.11,0-.15,0-.18-.14-.21-1-.43-1.9-.65-2.84q-1.36-5.88-2.71-11.74c0-.07,0-.14,0-.23h3.74c.09.47.19.94.28,1.41.28,1.37.56,2.73.82,4.11a14.53,14.53,0,0,1,.14,1.48c.11,1.3.21,2.59.32,3.89,0,.38.06.77.09,1.18.25,0,.48,0,.72,0,0,0,.1-.09.1-.15.06-.66.11-1.32.16-2,.1-1.29.16-2.58.32-3.87.13-1.05.37-2.1.57-3.14s.38-1.86.56-2.79a.15.15,0,0,1,.17-.14h3.48l.13,0c-1.17,5-2.32,10-3.49,14.94H575Z" transform="translate(-400.24 -257.04)"/><path d="M535.26,279.58h-3.74v-3.22h11.12v3.21h-3.72v18.94h-3.66Z" transform="translate(-400.24 -257.04)"/></svg>